<?xml version="1.0" encoding="UTF-8"?>
<svg width="198px" height="88px" viewBox="0 0 198 88" version="1.1" xmlns="http://www.w3.org/2000/svg" xmlns:xlink="http://www.w3.org/1999/xlink">
    <title>Untitled 2</title>
    <g id="Page-1" stroke="none" stroke-width="1" fill="none" fill-rule="evenodd">
        <rect id="Rectangle" stroke="#979797" x="2" y="1" width="194" height="86" rx="2"></rect>
        <rect id="Rectangle" stroke="#4A4A4A" x="39" y="26" width="118" height="35"></rect>
        <path id="Line" d="M11,40 L11,44 L39,44 L39,45 L11,45 L11,49 L2,44.5 L11,40 Z" fill="#4A4A4A" fill-rule="nonzero"></path>
        <path id="Line" d="M149,40 L158,44.5 L149,49 L149,45 L48,45 L48,49 L39,44.5 L48,40 L48,44 L149,44 L149,40 Z" fill="#4A4A4A" fill-rule="nonzero"></path>
        <path id="Line" d="M187,40 L196,44.5 L187,49 L187,45 L157,45 L157,44 L187,44 L187,40 Z" fill="#4A4A4A" fill-rule="nonzero"></path>
    </g>
</svg>