<?xml version="1.0" encoding="iso-8859-1"?>
<!-- Generator: Adobe Illustrator 16.0.0, SVG Export Plug-In . SVG Version: 6.00 Build 0)  -->
<!DOCTYPE svg PUBLIC "-//W3C//DTD SVG 1.1//EN" "http://www.w3.org/Graphics/SVG/1.1/DTD/svg11.dtd">
<svg version="1.1" id="Capa_1" xmlns="http://www.w3.org/2000/svg" xmlns:xlink="http://www.w3.org/1999/xlink" x="0px" y="0px"
	 width="599.051px" height="599.051px" viewBox="0 0 599.051 599.051" style="enable-background:new 0 0 599.051 599.051;"
	 xml:space="preserve">
<g>
	<g>
		<path fill="#0889E6" d="M58.354,426.735h57.773L275.613,526.7c9.246,5.795,19.858,8.857,30.692,8.857c14.969,0,29.189-5.71,40.045-16.078
			c5.543-5.294,9.91-11.526,12.98-18.524c3.227-7.351,4.861-15.183,4.861-23.275V299.628v-0.205V121.371
			c0-8.093-1.635-15.925-4.861-23.277c-3.07-6.997-7.438-13.229-12.98-18.523c-10.855-10.368-25.078-16.078-40.045-16.078
			c-10.835,0-21.448,3.063-30.693,8.858l-159.157,99.76H58.354c-31.901,0-57.854,25.953-57.854,57.854v138.917
			C0.5,400.783,26.453,426.735,58.354,426.735z M43.34,229.964c0-8.292,6.722-15.014,15.014-15.014h60.058
			c6.77,0,13.401-1.906,19.137-5.502L298.364,108.65c2.542-1.593,5.274-2.316,7.94-2.316c7.82,0,15.047,6.236,15.047,15.038v178.052
			v0.205V477.68c0,8.802-7.227,15.037-15.047,15.037c-2.666,0-5.4-0.724-7.94-2.316L137.221,389.397
			c-5.736-3.596-12.368-5.502-19.137-5.502h-59.73c-8.292,0-15.014-6.723-15.014-15.014V229.964z"/>
		<path fill="#0889E6" d="M306.305,536.058c-10.928,0-21.633-3.089-30.958-8.934l-159.364-99.889h-57.63C26.177,427.235,0,401.058,0,368.882
			V229.964c0-32.176,26.177-58.354,58.354-58.354h57.957l159.035-99.684c9.325-5.845,20.03-8.934,30.959-8.934
			c15.098,0,29.441,5.759,40.391,16.216c5.591,5.34,9.996,11.626,13.093,18.684c3.254,7.414,4.903,15.312,4.903,23.478V477.68
			c0,8.165-1.649,16.063-4.903,23.477c-3.097,7.059-7.502,13.345-13.093,18.685C335.746,530.299,321.402,536.058,306.305,536.058z
			 M58.354,172.611C26.729,172.611,1,198.339,1,229.964v138.917c0,31.625,25.729,57.354,57.354,57.354h57.917l0.122,0.076
			l159.486,99.965c9.166,5.745,19.687,8.781,30.426,8.781c14.839,0,28.938-5.661,39.699-15.939
			c5.495-5.248,9.824-11.427,12.868-18.364c3.198-7.285,4.819-15.048,4.819-23.074V121.371c0-8.026-1.621-15.79-4.819-23.076
			c-3.044-6.936-7.373-13.114-12.868-18.362c-10.762-10.279-24.86-15.939-39.699-15.939c-10.741,0-21.262,3.037-30.428,8.782
			l-159.279,99.836H58.354z M306.305,493.217c-2.872,0-5.71-0.827-8.206-2.393L136.955,389.821
			c-5.662-3.55-12.188-5.426-18.871-5.426h-59.73c-8.554,0-15.514-6.959-15.514-15.514V229.964c0-8.554,6.959-15.514,15.514-15.514
			h60.058c6.684,0,13.209-1.876,18.871-5.426l160.816-100.799c2.498-1.565,5.336-2.393,8.206-2.393
			c8.572,0,15.547,6.97,15.547,15.538V477.68C321.852,486.247,314.877,493.217,306.305,493.217z M58.354,215.451
			c-8.003,0-14.514,6.511-14.514,14.514v138.917c0,8.003,6.511,14.514,14.514,14.514h59.73c6.872,0,13.581,1.929,19.402,5.578
			L298.63,489.977c2.337,1.466,4.991,2.24,7.675,2.24c8.021,0,14.547-6.521,14.547-14.537V121.371
			c0-8.016-6.525-14.538-14.547-14.538c-2.682,0-5.336,0.774-7.675,2.24L137.813,209.873c-5.821,3.649-12.53,5.578-19.402,5.578
			H58.354z"/>
	</g>
	<g>
		<path fill="#0889E6" d="M419.457,320.945h57.416v57.417c0,11.83,9.59,21.42,21.42,21.42s21.42-9.59,21.42-21.42v-57.417h57.416
			c11.83,0,21.422-9.59,21.422-21.42s-9.592-21.42-21.422-21.42h-57.416v-57.417c0-11.83-9.59-21.42-21.42-21.42
			s-21.42,9.59-21.42,21.42v57.417h-57.416c-11.83,0-21.42,9.59-21.42,21.42S407.627,320.945,419.457,320.945z"/>
		<path fill="#0889E6" d="M498.293,400.282c-12.087,0-21.92-9.833-21.92-21.92v-56.917h-56.916c-12.087,0-21.92-9.833-21.92-21.92
			s9.833-21.92,21.92-21.92h56.916v-56.917c0-12.087,9.833-21.92,21.92-21.92s21.92,9.833,21.92,21.92v56.917h56.916
			c12.088,0,21.922,9.833,21.922,21.92s-9.834,21.92-21.922,21.92h-56.916v56.917C520.213,390.449,510.38,400.282,498.293,400.282z
			 M419.457,278.605c-11.535,0-20.92,9.385-20.92,20.92s9.385,20.92,20.92,20.92h57.916v57.917c0,11.535,9.385,20.92,20.92,20.92
			s20.92-9.385,20.92-20.92v-57.917h57.916c11.536,0,20.922-9.385,20.922-20.92s-9.386-20.92-20.922-20.92h-57.916v-57.917
			c0-11.535-9.385-20.92-20.92-20.92s-20.92,9.385-20.92,20.92v57.917H419.457z"/>
	</g>
</g>
<g>
</g>
<g>
</g>
<g>
</g>
<g>
</g>
<g>
</g>
<g>
</g>
<g>
</g>
<g>
</g>
<g>
</g>
<g>
</g>
<g>
</g>
<g>
</g>
<g>
</g>
<g>
</g>
<g>
</g>
</svg>
